<svg width="29" height="29" viewBox="0 0 29 29" fill="none" xmlns="http://www.w3.org/2000/svg">
<circle cx="14.5" cy="14.5" r="14.5" fill="#253E46"/>
<path d="M8.2 14.1C7.70294 13.4373 6.76274 13.3029 6.1 13.8C5.43726 14.2971 5.30294 15.2373 5.8 15.9L8.2 14.1ZM13 23L11.8 23.9L13.0948 25.6264L14.2618 23.8111L13 23ZM23.2618 9.81114C23.7097 9.11428 23.508 8.18621 22.8111 7.73823C22.1143 7.29025 21.1862 7.49201 20.7382 8.18886L23.2618 9.81114ZM5.8 15.9L11.8 23.9L14.2 22.1L8.2 14.1L5.8 15.9ZM14.2618 23.8111L23.2618 9.81114L20.7382 8.18886L11.7382 22.1889L14.2618 23.8111Z" fill="white"/>
</svg>
