<svg width="92" height="70" viewBox="0 0 92 70" fill="none" xmlns="http://www.w3.org/2000/svg">
<path fill-rule="evenodd" clip-rule="evenodd" d="M72.8632 67.6403C69.1021 69.1982 65.071 70 61 70V53.5084C62.9053 53.5084 64.7919 53.1331 66.5521 52.404C68.3123 51.6749 69.9117 50.6062 71.259 49.259C72.6062 47.9117 73.6749 46.3123 74.404 44.5521C75.1331 42.7919 75.5084 40.9053 75.5084 39L53 39V0H92L92 39C92 43.071 91.1982 47.1021 89.6403 50.8632C88.0824 54.6243 85.7989 58.0417 82.9203 60.9203C80.0417 63.7989 76.6243 66.0824 72.8632 67.6403Z" fill="#F0F7F9"/>
<path fill-rule="evenodd" clip-rule="evenodd" d="M19.8632 67.6403C16.1021 69.1982 12.071 70 8 70L8 53.5084C9.90527 53.5084 11.7919 53.1331 13.5521 52.404C15.3123 51.6749 16.9117 50.6062 18.259 49.259C19.6062 47.9117 20.6749 46.3123 21.404 44.5521C22.1331 42.7919 22.5084 40.9053 22.5084 39L0 39V0H39V39C39 43.071 38.1982 47.1021 36.6403 50.8632C35.0824 54.6243 32.7989 58.0417 29.9203 60.9203C27.0417 63.7989 23.6243 66.0824 19.8632 67.6403Z" fill="#F0F7F9"/>
</svg>
