<svg width="92" height="70" viewBox="0 0 92 70" fill="none" xmlns="http://www.w3.org/2000/svg">
<path fill-rule="evenodd" clip-rule="evenodd" d="M19.1367 2.35986C22.8984 0.801758 26.9297 0 31 0V16.4917C29.0938 16.4917 27.207 16.8667 25.4492 17.5962C23.6875 18.3252 22.0898 19.394 20.7422 20.7412C19.3945 22.0884 18.3242 23.6875 17.5977 25.4478C17.1641 26.4917 16.8555 27.5796 16.6758 28.6899C16.5547 29.4521 16.4922 30.2246 16.4922 31H39V70H0V31C0 26.9292 0.800781 22.8979 2.35938 19.1367C3.91797 15.3755 6.19922 11.9585 9.07812 9.07959C11.957 6.20117 15.375 3.91748 19.1367 2.35986Z" fill="#F0F7F9"/>
<path fill-rule="evenodd" clip-rule="evenodd" d="M72.1368 2.35973C75.8979 0.801839 79.929 0 84 0V16.4916C82.0947 16.4916 80.2081 16.8669 78.4479 17.596C76.6877 18.3251 75.0883 19.3938 73.741 20.741C72.3938 22.0883 71.3251 23.6877 70.596 25.4479C69.8669 27.2081 69.4916 29.0947 69.4916 31L92 31V70H53V31C53 26.929 53.8018 22.8979 55.3597 19.1368C56.9176 15.3757 59.2011 11.9583 62.0797 9.07969C64.9583 6.20107 68.3757 3.91763 72.1368 2.35973Z" fill="#F0F7F9"/>
</svg>
